<svg xmlns="http://www.w3.org/2000/svg" xmlns:xlink="http://www.w3.org/1999/xlink" width="50" height="50" viewBox="0 0 50 50">
  <defs>
    <clipPath id="clip-path">
      <rect id="長方形_3198" data-name="長方形 3198" width="49.749" height="48.821" fill="none"/>
    </clipPath>
  </defs>
  <g id="グループ_2266" data-name="グループ 2266" transform="translate(-280 -370)">
    <rect id="長方形_4270" data-name="長方形 4270" width="50" height="50" transform="translate(280 370)" fill="none"/>
    <g id="グループ_1731" data-name="グループ 1731" transform="translate(280 370.59)">
      <g id="グループ_1699" data-name="グループ 1699" transform="translate(0 0)" clip-path="url(#clip-path)">
        <path id="パス_3736" data-name="パス 3736" d="M29.079,40.363H15.264a1.692,1.692,0,1,1,0-3.383H29.079a4.7,4.7,0,0,0,4.142-3.112l8.2-28.314A8.045,8.045,0,0,1,48.814,0h5.162a1.692,1.692,0,1,1,0,3.383H48.814A4.7,4.7,0,0,0,44.673,6.5l-8.2,28.314a8.044,8.044,0,0,1-7.391,5.554" transform="translate(-5.919 0)" fill="#ffba00"/>
        <path id="パス_3737" data-name="パス 3737" d="M29.156,42.764H11.525A8.044,8.044,0,0,1,4.134,37.21L.235,23.753a5.12,5.12,0,0,1,.71-4.547,5.12,5.12,0,0,1,4.17-1.948H35.565A1.692,1.692,0,0,1,37.19,19.42L30.781,41.543a1.692,1.692,0,0,1-1.625,1.221M5.115,20.641a1.766,1.766,0,0,0-1.465.6,1.768,1.768,0,0,0-.166,1.573l3.9,13.457a4.7,4.7,0,0,0,4.142,3.112h16.36l5.429-18.739Z" transform="translate(0 -7.526)" fill="#ffba00"/>
        <path id="パス_3738" data-name="パス 3738" d="M11.993,77.422A5.921,5.921,0,1,1,17.913,71.5a5.927,5.927,0,0,1-5.921,5.921m0-8.458A2.537,2.537,0,1,0,14.53,71.5a2.541,2.541,0,0,0-2.537-2.537" transform="translate(-2.648 -28.601)" fill="#ffba00"/>
        <path id="パス_3739" data-name="パス 3739" d="M44.493,77.422A5.921,5.921,0,1,1,50.413,71.5a5.927,5.927,0,0,1-5.921,5.921m0-8.458A2.537,2.537,0,1,0,47.03,71.5a2.541,2.541,0,0,0-2.537-2.537" transform="translate(-16.822 -28.601)" fill="#ffba00"/>
        <path id="パス_3740" data-name="パス 3740" d="M15.576,34.381l2.37,8.18a1.134,1.134,0,0,0,.453.341H31.712l2.468-8.52Z" transform="translate(-6.793 -14.994)" fill="#55c5d9"/>
        <path id="パス_3741" data-name="パス 3741" d="M30.4,43.284H17.09a1.693,1.693,0,0,1-.545-.09,2.815,2.815,0,0,1-1.3-.974,1.716,1.716,0,0,1-.237-.5l-2.369-8.18a1.692,1.692,0,0,1,1.625-2.162h18.6A1.692,1.692,0,0,1,34.5,33.543l-2.468,8.52A1.692,1.692,0,0,1,30.4,43.284M18.007,39.9H29.133l1.488-5.137h-14.1Z" transform="translate(-5.485 -13.686)" fill="#55c5d9"/>
      </g>
    </g>
  </g>
</svg>
