<svg xmlns="http://www.w3.org/2000/svg" xmlns:xlink="http://www.w3.org/1999/xlink" width="543.14" height="477.773" viewBox="0 0 543.14 477.773">
  <defs>
    <clipPath id="clip-path">
      <rect id="長方形_5318" data-name="長方形 5318" width="332.322" height="313.351" fill="#55c5d9"/>
    </clipPath>
  </defs>
  <g id="グループ_7617" data-name="グループ 7617" transform="translate(88.492 249.223)">
    <g id="グループ_3306" data-name="グループ 3306" transform="matrix(0.966, 0.259, -0.259, 0.966, -7.391, -249.223)" clip-path="url(#clip-path)">
      <path id="パス_5219" data-name="パス 5219" d="M42.765,159.013c3.141-1.673,6.344-3.23,9.562-4.695,21.376-9.728,47.56-15.6,63.59-33.96C134.14,99.484,141.06,72.949,151.84,48.092c7.747-17.864,19.213-35.476,36.964-43.48,22.4-10.1,49.063-2.285,69.965,10.634,65.617,40.556,100.054,136.123,48.95,201.3-16.053,20.473-37.688,35.79-59.707,49.645C199.6,296.649,139.338,322.175,81.1,310.437c-28.125-5.668-54.973-21.476-69.823-46.025s-15.7-58.1,1.436-81.11c7.767-10.428,18.5-18.139,30.051-24.289" transform="translate(0 0)" fill="#55c5d9"/>
    </g>
    <path id="パス_5220" data-name="パス 5220" d="M42.765,159.013c3.141-1.673,6.344-3.23,9.562-4.695,21.376-9.728,47.56-15.6,63.59-33.96C134.14,99.484,141.06,72.949,151.84,48.092c7.747-17.864,19.213-35.476,36.964-43.48,22.4-10.1,49.063-2.285,69.965,10.634,65.617,40.556,100.054,136.123,48.95,201.3-16.053,20.473-37.688,35.79-59.707,49.645C199.6,296.649,139.338,322.175,81.1,310.437c-28.125-5.668-54.973-21.476-69.823-46.025s-15.7-58.1,1.436-81.11c7.767-10.428,18.5-18.139,30.051-24.289" transform="matrix(-0.839, -0.545, 0.545, -0.839, 282.582, 227.152)" fill="none" stroke="#f7f7f7" stroke-width="2"/>
  </g>
</svg>
