<svg xmlns="http://www.w3.org/2000/svg" xmlns:xlink="http://www.w3.org/1999/xlink" width="428.332" height="371.21" viewBox="0 0 428.332 371.21">
  <defs>
    <clipPath id="clip-path">
      <rect id="長方形_2876" data-name="長方形 2876" width="301.692" height="216.642" fill="#ffba00"/>
    </clipPath>
  </defs>
  <g id="グループ_7618" data-name="グループ 7618" transform="translate(-473.61 -633.046)">
    <g id="グループ_3305" data-name="グループ 3305" transform="translate(600.25 694.256)">
      <g id="グループ_1175" data-name="グループ 1175" clip-path="url(#clip-path)">
        <path id="パス_406" data-name="パス 406" d="M30.067,184.04a102.534,102.534,0,0,1-16.45-27.428C4.068,133.372-2.354,104.283.82,79.2,5.458,42.547,32.325,7.414,68.734,1.141c29.637-5.106,59.53,8.666,89.563,7.086,13.912-.732,27.6-4.759,41.524-4.28,22.521.775,43.4,13.527,58.2,30.521s24.244,37.949,32.077,59.078c11.664,31.468,19.292,69.625-1.066,96.308-16.142,21.158-45.353,27.973-71.931,26.624-29.639-1.5-58.613-14.08-88.178-11.18-12.883,1.264-25.631,3.995-38.571,4.387-11.913.361-24.023-1.326-34.911-6.173a72.049,72.049,0,0,1-25.37-19.473" transform="translate(0 0)" fill="#ffba00"/>
      </g>
    </g>
    <path id="パス_5218" data-name="パス 5218" d="M30.067,184.04a102.534,102.534,0,0,1-16.45-27.428C4.068,133.372-2.354,104.283.82,79.2,5.458,42.547,32.325,7.414,68.734,1.141c29.637-5.106,59.53,8.666,89.563,7.086,13.912-.732,27.6-4.759,41.524-4.28,22.521.775,43.4,13.527,58.2,30.521s24.244,37.949,32.077,59.078c11.664,31.468,19.292,69.625-1.066,96.308-16.142,21.158-45.353,27.973-71.931,26.624-29.639-1.5-58.613-14.08-88.178-11.18-12.883,1.264-25.631,3.995-38.571,4.387-11.913.361-24.023-1.326-34.911-6.173a72.049,72.049,0,0,1-25.37-19.473" transform="translate(680.754 1002.844) rotate(-133)" fill="none" stroke="#f7f7f7" stroke-width="2"/>
  </g>
</svg>
