<svg xmlns="http://www.w3.org/2000/svg" xmlns:xlink="http://www.w3.org/1999/xlink" width="15.747" height="12.576" viewBox="0 0 15.747 12.576">
  <defs>
    <clipPath id="clip-path">
      <rect id="長方形_4614" data-name="長方形 4614" width="15.747" height="12.576" fill="currentColor"/>
    </clipPath>
  </defs>
  <g id="グループ_2733" data-name="グループ 2733" clip-path="url(#clip-path)">
    <path id="パス_5012" data-name="パス 5012" d="M12.291,1.419A4.876,4.876,0,0,1,16.779,4.4H14.866l2.649,3.478L20.164,4.4H18.289A6.288,6.288,0,0,0,6.845,3.143l1.228.71a4.888,4.888,0,0,1,4.218-2.435" transform="translate(-4.417 0)" fill="currentColor"/>
    <path id="パス_5013" data-name="パス 5013" d="M7.874,19.7a4.876,4.876,0,0,1-4.488-2.982H5.3l-2.65-3.478L0,16.722H1.876A6.288,6.288,0,0,0,13.319,17.98l-1.228-.71A4.888,4.888,0,0,1,7.874,19.7" transform="translate(0 -8.547)" fill="currentColor"/>
  </g>
</svg>
